<?xml version="1.0" encoding="utf-8"?>
<!-- Generator: Adobe Illustrator 21.0.0, SVG Export Plug-In . SVG Version: 6.00 Build 0)  -->
<svg version="1.1" id="Layer_1" xmlns="http://www.w3.org/2000/svg" xmlns:xlink="http://www.w3.org/1999/xlink" x="0px" y="0px"
	 viewBox="0 0 512 512" style="enable-background:new 0 0 512 512;" xml:space="preserve">
<g>
	<path d="M256,0l-14.5,13.9L121.9,134.1l-20.2,19.5l25.8,12.6c0,0,20.5,7.4,49.1,13.9l-88.8,88.8l-20.2,19.5L92.9,301
		c0,0,21.7,6.1,32.7,10.1l-72.4,72.4l-19.5,20.2l25.2,12.6c0,0,49.1,23.7,136.7,32.1V512h40.3v-61.1c6.8,0.2,13.1,0.6,20.2,0.6
		c7.1,0,13.4-0.4,20.2-0.6V512h40.3v-63.6c87.7-8.4,137.3-32.1,137.3-32.1l24.6-12.6L459,383.5l-72.4-72.4
		c11-3.9,32.7-10.1,32.7-10.1l25.2-12.6l-20.2-19.5l-88.8-88.8c28.7-6.5,49.1-13.9,49.1-13.9l25.8-12.6l-20.2-19.5L270.5,13.9L256,0
		z M256,57.3l80.6,80c-12,4-14.4,7.2-44.1,10.1l-36.5,3.8l-36.5-3.8c-29.7-2.9-32.1-6.1-44.1-10.1L256,57.3z M256,158.1l23.9,23.3
		l92.6,92.6c-9.4,3.3-9.1,4.4-28.3,8.2l-37.2,7.6l27.1,26.5l73.7,73.7c-25.7,9.2-69.6,21.4-151.8,21.4
		c-81.4,0-125.2-12.2-151.1-21.4l73.1-73.7l27.1-26.5l-37.2-7.6c-19.2-3.8-19-4.9-28.3-8.2l92.6-92.6L256,158.1z"/>
</g>
</svg>
