<?xml version="1.0" encoding="utf-8"?>
<!-- Generator: Adobe Illustrator 24.1.1, SVG Export Plug-In . SVG Version: 6.00 Build 0)  -->
<svg version="1.1" id="Layer_1" xmlns="http://www.w3.org/2000/svg" xmlns:xlink="http://www.w3.org/1999/xlink" x="0px" y="0px"
	 viewBox="0 0 512 512" style="enable-background:new 0 0 512 512;" xml:space="preserve">
<g>
	<path d="M409.59,153.63c28.27,0,51.19-22.92,51.19-51.19c0-28.3-22.92-51.19-51.19-51.19s-51.19,22.9-51.19,51.19
		C358.4,130.71,381.32,153.63,409.59,153.63z M202.96,236.54c2.7,13.92,2.45,28.25-0.65,42.09l129.01,64.94
		c36.47-43.22,101.06-48.69,144.28-12.22c43.19,36.47,48.67,101.06,12.2,144.28s-101.06,48.69-144.28,12.22
		c-28.45-24.02-41.64-61.62-34.4-98.14l-130.28-65.59c-37.65,42.22-102.36,45.92-144.56,8.3c-42.22-37.65-45.92-102.36-8.3-144.56
		c37.65-42.22,102.36-45.92,144.56-8.3c3.72,3.32,7.22,6.92,10.42,10.75l128.91-64.57c-12.9-55.04,21.27-110.14,76.32-123.03
		c55.07-12.9,110.16,21.3,123.06,76.34c12.9,55.07-21.3,110.14-76.34,123.03c-36.27,8.5-74.27-3.35-99.26-30.97L202.96,236.54z
		 M102.43,307.21c28.27,0,51.19-22.92,51.19-51.19c0-28.3-22.92-51.19-51.19-51.19s-51.19,22.9-51.19,51.19
		C51.23,284.29,74.16,307.21,102.43,307.21z M409.59,460.79c28.27,0,51.19-22.92,51.19-51.19c0-28.3-22.92-51.19-51.19-51.19
		s-51.19,22.9-51.19,51.19C358.4,437.87,381.32,460.79,409.59,460.79z"/>
</g>
</svg>
