<?xml version="1.0" encoding="utf-8"?>
<!-- Generator: Adobe Illustrator 19.0.0, SVG Export Plug-In . SVG Version: 6.00 Build 0)  -->
<svg version="1.1" id="Layer_1" xmlns="http://www.w3.org/2000/svg" xmlns:xlink="http://www.w3.org/1999/xlink" x="0px" y="0px"
	 viewBox="0 0 512 512" style="enable-background:new 0 0 512 512;" xml:space="preserve">
<g id="XMLID_1_">
	<path id="XMLID_5_" d="M167.1,239.7L50.6,124.2L167.1,7.7l21.7,21.7l-79.5,79.5h87.6c91.2,0,166.2,74,166.2,166.2
		c0,46.1-19,90.3-52.4,121L289,373.4c28-26.2,43.3-61.4,43.3-99.3c0-74.9-60.5-135.4-135.4-135.4h-87.6l79.5,79.5L167.1,239.7z
		 M482.2,264.1v195c0,8.1-7.2,15.4-15.4,15.4H45.1c-8.1,0-15.4-7.2-15.4-15.4v-195H0v195c0,25.3,19.9,45.1,45.1,45.1h421.7
		c25.3,0,45.1-19.9,45.1-45.1v-195H482.2z"/>
</g>
</svg>
