<?xml version="1.0" encoding="utf-8"?>
<!-- Generator: Adobe Illustrator 19.0.0, SVG Export Plug-In . SVG Version: 6.00 Build 0)  -->
<svg version="1.1" id="Layer_1" xmlns="http://www.w3.org/2000/svg" xmlns:xlink="http://www.w3.org/1999/xlink" x="0px" y="0px"
	 viewBox="0 0 512 512" style="enable-background:new 0 0 512 512;" xml:space="preserve">
<g id="XMLID_2_">
	<path id="XMLID_4_" d="M405.5,298c29.9,0,55.1,10.3,75.7,30.8s30.8,45.8,30.8,75.7c0,29.9-10.3,55.1-30.8,75.7
		c-20.6,20.6-45.8,30.8-75.7,30.8c-29.9,0-55.1-10.3-75.7-30.8c-20.6-20.6-30.8-45.8-30.8-75.7c0-2.8,0-6.5,0.9-11.2l-120.5-59.8
		c-20.6,19.6-44.8,29-72.9,29c-29.9,0-55.1-10.3-75.7-30.8S0,285.9,0,256s10.3-55.1,30.8-75.7s45.8-30.8,75.7-30.8
		c28,0,52.3,9.3,72.9,29l120.5-59.8c0-4.7-0.9-8.4-0.9-11.2c0-29.9,10.3-55.1,30.8-75.7s45.8-30.8,75.7-30.8
		c29.9,0,55.1,10.3,75.7,30.8S512,77.5,512,107.4s-10.3,55.1-30.8,75.7c-20.6,20.6-45.8,30.8-75.7,30.8c-28,0-52.3-9.3-72.9-29
		l-120.5,59.8c0,4.7,0.9,8.4,0.9,11.2c0,2.8,0,6.5-0.9,11.2L332.6,327C353.2,307.4,377.5,298,405.5,298z"/>
</g>
</svg>
