<?xml version="1.0" encoding="utf-8"?>
<!-- Generator: Adobe Illustrator 24.3.0, SVG Export Plug-In . SVG Version: 6.00 Build 0)  -->
<svg version="1.1" id="Layer_1" xmlns="http://www.w3.org/2000/svg" xmlns:xlink="http://www.w3.org/1999/xlink" x="0px" y="0px"
	 viewBox="0 0 512 512" style="enable-background:new 0 0 512 512;" xml:space="preserve">
<g>
	<path d="M102.4,332.8c23.28,0,44.35-9.15,60.33-23.8l160.25,91.58c-1.75,7.02-2.98,14.25-2.98,21.82c0,49.43,40.17,89.6,89.6,89.6
		c49.4,0,89.6-40.17,89.6-89.6c0-49.4-40.2-89.6-89.6-89.6c-23.3,0-44.38,9.18-60.35,23.83L189,265.05
		c1.6-6.32,2.62-12.85,2.75-19.67l157.48-89.98c16,14.65,37.07,23.8,60.38,23.8c49.4,0,89.6-40.18,89.6-89.6
		C499.2,40.2,459,0,409.6,0C360.17,0,320,40.2,320,89.6c0,7.58,1.23,14.8,2.98,21.85l-145.5,83.18
		c-16-24.62-43.62-41.02-75.08-41.02c-49.43,0-89.6,40.2-89.6,89.6C12.8,292.62,52.97,332.8,102.4,332.8z M409.6,384
		c21.15,0,38.4,17.23,38.4,38.4c0,21.18-17.25,38.4-38.4,38.4c-21.18,0-38.4-17.22-38.4-38.4C371.2,401.23,388.42,384,409.6,384z
		 M409.6,51.2c21.15,0,38.4,17.23,38.4,38.4S430.75,128,409.6,128c-21.18,0-38.4-17.22-38.4-38.4S388.42,51.2,409.6,51.2z
		 M102.4,204.8c21.15,0,38.4,17.22,38.4,38.4s-17.25,38.4-38.4,38.4c-21.18,0-38.4-17.23-38.4-38.4S81.22,204.8,102.4,204.8z"/>
</g>
</svg>
