<?xml version="1.0" encoding="utf-8"?>
<!-- Generator: Adobe Illustrator 24.1.1, SVG Export Plug-In . SVG Version: 6.00 Build 0)  -->
<svg version="1.1" id="Layer_1" xmlns="http://www.w3.org/2000/svg" xmlns:xlink="http://www.w3.org/1999/xlink" x="0px" y="0px"
	 viewBox="0 0 512 512" style="enable-background:new 0 0 512 512;" xml:space="preserve">
<g>
	<path d="M162.77,307.78h186.45L283.63,185.9l37.22-2.72L256.01,75.13l-64.82,108.04l37.27,2.67l-65.71,121.93H162.77z
		 M365.92,231.09l48.51,90.1c6.68,12.41,2.02,27.9-10.4,34.58c-3.71,1.99-7.85,3.04-12.07,3.07H281.54v127.64
		c0,14.09-11.44,25.53-25.53,25.53c-14.11,0-25.53-11.44-25.53-25.53V358.83H120.04c-14.11-0.02-25.53-11.44-25.53-25.55
		c0.02-4.21,1.07-8.38,3.07-12.09l48.49-90.1l-18.37-9.87c-6.43-8.3-7.08-19.69-1.65-28.69L234.12,12.39
		c7.28-12.09,22.96-16,35.03-8.73c3.59,2.14,6.58,5.14,8.73,8.73l108.09,180.14c5.38,9,4.74,20.37-1.65,28.67l-18.37,9.9H365.92z"/>
</g>
</svg>
