<?xml version="1.0" encoding="utf-8"?>
<!-- Generator: Adobe Illustrator 24.1.1, SVG Export Plug-In . SVG Version: 6.00 Build 0)  -->
<svg version="1.1" id="Layer_1" xmlns="http://www.w3.org/2000/svg" xmlns:xlink="http://www.w3.org/1999/xlink" x="0px" y="0px"
	 viewBox="0 0 512 512" style="enable-background:new 0 0 512 512;" xml:space="preserve">
<g>
	<path d="M256,512C114.4,512,0,397.6,0,256S114.4,0,256,0s256,114.4,256,256S396,512,256,512z M256,30.1C131,30.1,30.1,131,30.1,256
		S131,481.9,256,481.9S481.9,381,481.9,256S379.5,30.1,256,30.1z"/>
	<path d="M108.4,441.2l-27.1-12c7.5-18.1,31.6-28.6,57.2-40.7c25.6-12,57.2-25.6,57.2-42.2v-22.6c-9-7.5-24.1-24.1-27.1-48.2
		c-7.5-7.5-19.6-21.1-19.6-39.1c0-10.5,4.5-19.6,7.5-25.6c-3-12-6-34.6-6-52.7c0-58.7,40.7-97.9,105.4-97.9
		c18.1,0,40.7,4.5,52.7,18.1c28.6,6,52.7,39.1,52.7,79.8c0,25.6-4.5,46.7-7.5,57.2c3,4.5,6,12.1,6,21.1c0,19.6-10.5,33.1-19.6,39.1
		c-3,24.1-16.6,39.2-25.6,46.7v24.1c0,13.6,27.1,24.1,51.2,33.1c28.6,10.5,58.7,22.6,69.3,46.7l-28.6,10.5
		c-4.5-12-28.6-21.1-51.2-28.6c-33.1-12.1-70.8-25.6-70.8-60.2v-39.2l7.5-4.5c0,0,18.1-12.1,18.1-36.1v-10.5l9-4.5
		c1.5,0,9-4.5,9-16.6c0-3-3-7.5-4.5-9l-6-6l3-7.5c0,0,7.5-24.1,7.5-54.2c0-28.6-16.6-49.7-30.1-49.7h-9l-4.5-7.5
		c0-6-10.5-12-28.6-12c-46.7,0-75.3,25.6-75.3,67.8c0,19.6,7.5,52.7,7.5,52.7l1.5,7.5l-6,7.5c-1.5,0-4.5,4.5-4.5,10.5
		c0,7.5,9,16.6,13.6,19.6l6,4.5v7.5c0,22.6,19.6,34.6,19.6,36.1l7.5,4.5v39.2c0,36.1-39.2,54.2-75.3,69.3
		C134,423.2,111.4,433.7,108.4,441.2z"/>
</g>
</svg>
