<svg xmlns="http://www.w3.org/2000/svg" width="16" height="16" viewBox="0 0 16 16" fill="none">
<path d="M9.33325 9.87565V6.12427C9.33325 4.02747 9.33325 2.97907 8.71637 2.71816C8.0995 2.45725 7.37348 3.19858 5.92146 4.68124C5.16951 5.44906 4.74048 5.61908 3.67061 5.61908C2.73497 5.61908 2.26715 5.61908 1.93109 5.84837C1.23348 6.32433 1.33893 7.25462 1.33893 7.99996C1.33893 8.7453 1.23348 9.67559 1.93109 10.1515C2.26715 10.3808 2.73497 10.3808 3.67061 10.3808C4.74048 10.3808 5.16951 10.5509 5.92146 11.3187C7.37349 12.8013 8.0995 13.5427 8.71637 13.2818C9.33325 13.0208 9.33325 11.9725 9.33325 9.87565Z" stroke="#97A0AF" stroke-width="1.2" stroke-linecap="round" stroke-linejoin="round"/>
<path d="M11.3333 6C11.7502 6.54645 11.9999 7.24229 11.9999 8C11.9999 8.75771 11.7502 9.45355 11.3333 10" stroke="#97A0AF" stroke-width="1.2" stroke-linecap="round" stroke-linejoin="round"/>
<path d="M13.3333 4.66663C14.1671 5.57738 14.6666 6.73712 14.6666 7.99996C14.6666 9.2628 14.1671 10.4225 13.3333 11.3333" stroke="#97A0AF" stroke-width="1.2" stroke-linecap="round" stroke-linejoin="round"/>
</svg>