<svg xmlns="http://www.w3.org/2000/svg" width="100" height="100" viewBox="0 0 100 100" fill="none">
<path d="M49.5 92.4276C72.968 92.4276 92 73.5387 92 50.2138C92 26.8889 72.968 8 49.5 8C26.032 8 7 26.8889 7 50.2138C7 73.5387 26.032 92.4276 49.5 92.4276Z" fill="#E8E8E8"/>
<path d="M82.0548 44.7045V70.5336C82.0548 75.8998 77.6903 80.2642 72.2526 80.2642H26.8907C21.5245 80.2642 17.16 75.9713 17.0885 70.6051C17.0885 70.5336 17.0885 70.5336 17.0885 70.4621V44.7045C17.0885 44.6329 17.0885 44.6329 17.0885 44.5614C17.0885 44.4183 17.0885 44.2752 17.16 44.1321C17.2316 43.9174 17.3031 43.7743 17.3747 43.5597L29.538 20.3063C29.9673 19.3762 30.8974 18.8754 31.8991 18.8754H67.1727C68.1744 18.8754 69.0329 19.3762 69.5338 20.3063L81.6971 43.5597C81.7686 43.7028 81.8402 43.9174 81.9117 44.1321C82.0548 44.2752 82.0548 44.4898 82.0548 44.7045Z" fill="white" stroke="#93A69F" stroke-width="2" stroke-miterlimit="10"/>
<path d="M58.873 44.9192H40.4849C39.6979 44.9192 39.054 44.3468 39.054 43.4882V18.3746C39.054 17.5875 39.6263 16.9436 40.4849 16.9436H58.8014C59.5885 16.9436 60.2324 17.516 60.2324 18.3746V43.4882C60.2324 44.2752 59.66 44.9192 58.873 44.9192Z" fill="white" stroke="#93A69F" stroke-width="2" stroke-miterlimit="10"/>
<path d="M64.9546 50.8578H34.4032C33.4015 50.8578 32.6145 49.9992 32.6145 49.0691V24.6709C32.6145 23.6692 33.4731 22.8822 34.4032 22.8822H64.9546C65.9563 22.8822 66.7433 23.7408 66.7433 24.6709V49.0691C66.6717 50.0707 65.9563 50.8578 64.9546 50.8578Z" fill="white" stroke="#93A69F" stroke-width="2" stroke-miterlimit="10"/>
<path d="M68.4605 57.798H30.9689C29.8957 57.798 28.9656 56.8678 28.9656 55.8662V31.8258C28.9656 30.7525 29.8957 29.8939 30.9689 29.8939H68.4605C69.5338 29.8939 70.4639 30.8241 70.4639 31.8258V55.7946C70.3923 56.9394 69.5338 57.798 68.4605 57.798Z" fill="white" stroke="#93A69F" stroke-width="2" stroke-miterlimit="10"/>
<path d="M72.2526 64.5235H27.1769C25.9605 64.5235 25.0304 63.5218 25.0304 62.4486V38.766C25.0304 37.5496 26.0321 36.691 27.1769 36.691H72.2526C73.4689 36.691 74.3991 37.6927 74.3991 38.766V62.3771C74.3275 63.5934 73.4689 64.5235 72.2526 64.5235Z" fill="white" stroke="#93A69F" stroke-width="2" stroke-miterlimit="10"/>
<path d="M58.7298 46.064H41.7728C41.3435 46.064 40.9142 45.7063 40.9142 45.2054C40.9142 44.7762 41.2719 44.3469 41.7728 44.3469H58.7298C59.1591 44.3469 59.5884 44.7046 59.5884 45.2054C59.5884 45.7063 59.2307 46.064 58.7298 46.064Z" fill="#748C84"/>
<path d="M53.7931 51.0724H32.3285C32.0423 51.0724 31.8276 50.8578 31.8276 50.5716C31.8276 50.2854 32.0423 50.0708 32.3285 50.0708H53.7216C54.0078 50.0708 54.2224 50.2854 54.2224 50.5716C54.3655 50.7147 54.1509 51.0724 53.7931 51.0724Z" fill="#748C84"/>
<path d="M67.8881 51.0724H57.0842C56.798 51.0724 56.5834 50.8578 56.5834 50.5716C56.5834 50.2854 56.798 50.0708 57.0842 50.0708H67.8165C68.1027 50.0708 68.3174 50.2854 68.3174 50.5716C68.4605 50.7147 68.2458 51.0724 67.8881 51.0724Z" fill="#748C84"/>
<g filter="url(#filter0_d_155_4215)">
<path d="M78.3215 45.9995V70.4878C78.3215 73.9708 75.5351 76.7571 71.9889 76.7571H27.154C23.6711 76.7571 20.8214 73.9708 20.8214 70.4878V45.8729C20.8214 45.7462 20.8214 45.6196 20.8847 45.4929H33.1766C35.3297 45.4929 37.1028 47.2027 37.1028 49.4191C37.1028 50.4957 37.5461 51.5089 38.2427 52.2055C39.0026 52.9654 39.8892 53.3454 41.029 53.3454H58.8927C61.0457 53.3454 62.8189 51.6355 62.8189 49.4191C62.8189 48.3426 63.2622 47.3294 63.9587 46.6328C64.7187 45.8729 65.6052 45.4929 66.6818 45.4929H78.1948C78.3215 45.6196 78.3215 45.8095 78.3215 45.9995Z" fill="white"/>
<path d="M77.8215 45.9995V70.4878C77.8215 73.6913 75.2623 76.2571 71.9889 76.2571H27.154C23.9407 76.2571 21.3214 73.6881 21.3214 70.4878V45.9929H33.1766C35.0588 45.9929 36.6028 47.4841 36.6028 49.4191C36.6028 50.6298 37.0999 51.7698 37.8891 52.559C38.743 53.4129 39.7568 53.8454 41.029 53.8454H58.8927C61.3166 53.8454 63.3189 51.9169 63.3189 49.4191C63.3189 48.4767 63.7084 47.5902 64.3123 46.9863C64.9814 46.3172 65.742 45.9929 66.6818 45.9929H77.8215C77.8215 45.9951 77.8215 45.9973 77.8215 45.9995Z" stroke="#93A69F"/>
</g>
<path d="M82.0548 44.7045V73.181C82.0548 77.1162 78.9067 80.2643 74.8999 80.2643H24.2434C20.3082 80.2643 17.0885 77.1162 17.0885 73.181V44.5614C17.0885 44.4184 17.0885 44.2753 17.16 44.1322H33.4732C35.9058 44.1322 37.9092 46.064 37.9092 48.5682C37.9092 49.7845 38.41 50.9293 39.1971 51.7163C40.0557 52.5749 41.0574 53.0042 42.3452 53.0042H56.8696C59.3023 53.0042 61.3057 51.0724 61.3057 48.5682C61.3057 47.3519 61.8065 46.2071 62.5935 45.42C63.4521 44.5614 64.4538 44.1322 65.6702 44.1322H81.9117C82.0548 44.2753 82.0548 44.4899 82.0548 44.7045Z" fill="white" stroke="#93A69F" stroke-width="2" stroke-miterlimit="10"/>
<path d="M74.8999 69.9613H60.1608C59.66 69.9613 59.2307 69.6035 59.2307 69.0312C59.2307 68.5303 59.5885 68.101 60.1608 68.101H74.7568C75.2576 68.101 75.6869 68.4588 75.6869 69.0312C75.7585 69.4604 75.3292 69.9613 74.8999 69.9613Z" fill="#748C84"/>
<path d="M68.3174 74.4689H60.1608C59.66 74.4689 59.2307 74.1112 59.2307 73.5388C59.2307 73.0379 59.5885 72.6086 60.1608 72.6086H68.2459C68.7467 72.6086 69.176 72.9664 69.176 73.5388C69.2476 73.9681 68.8183 74.4689 68.3174 74.4689Z" fill="#748C84"/>
<path d="M61.7579 77.7444C61.4917 78.8755 61.0925 80.0732 60.6268 81.0712C59.3626 83.533 57.3666 85.4625 54.9048 86.7266C52.3765 87.9908 49.3824 88.5231 46.3883 87.8577C39.3356 86.394 34.8113 79.4743 36.275 72.4217C37.7388 65.369 44.5919 60.7781 51.6446 62.3084C54.1729 62.8406 56.3685 64.1048 58.2315 65.8347C61.3586 68.9618 62.6893 73.4862 61.7579 77.7444Z" fill="#93A69F" stroke="#748C84" stroke-width="1.32033" stroke-miterlimit="10"/>
<path d="M52.7563 73.4065H50.7262V71.3763C50.7262 70.4993 50.0373 69.6998 49.0497 69.6998C48.1727 69.6998 47.3732 70.3887 47.3732 71.3763V73.4065H45.343C44.466 73.4065 43.6665 74.0954 43.6665 75.083C43.6665 75.54 43.8292 75.9675 44.1438 76.2822C44.4585 76.5968 44.886 76.7595 45.343 76.7595H47.3732V78.7897C47.3732 79.6667 48.0621 80.4662 49.0497 80.4662C49.9267 80.4662 50.7262 79.7772 50.7262 78.7897V76.7595H52.7563C53.6333 76.7595 54.4329 76.0706 54.4329 75.083C54.4329 74.0954 53.6333 73.4065 52.7563 73.4065Z" fill="white" stroke="#748C84" stroke-width="1.32033"/>
<path d="M96.9195 31.1405C98.6208 31.1405 99.9999 29.7614 99.9999 28.0601C99.9999 26.3588 98.6208 24.9797 96.9195 24.9797C95.2182 24.9797 93.8391 26.3588 93.8391 28.0601C93.8391 29.7614 95.2182 31.1405 96.9195 31.1405Z" fill="#E6E7E8"/>
<path d="M93.8393 21.148C95.0011 21.148 95.943 20.2062 95.943 19.0444C95.943 17.8825 95.0011 16.9407 93.8393 16.9407C92.6774 16.9407 91.7356 17.8825 91.7356 19.0444C91.7356 20.2062 92.6774 21.148 93.8393 21.148Z" fill="#E6E7E8"/>
<path d="M8.64006 28.0601C9.80189 28.0601 10.7437 27.1182 10.7437 25.9564C10.7437 24.7946 9.80189 23.8527 8.64006 23.8527C7.47823 23.8527 6.53638 24.7946 6.53638 25.9564C6.53638 27.1182 7.47823 28.0601 8.64006 28.0601Z" fill="#E6E7E8"/>
<path d="M3.90684 74.3411C6.06453 74.3411 7.81368 72.592 7.81368 70.4343C7.81368 68.2766 6.06453 66.5275 3.90684 66.5275C1.74915 66.5275 0 68.2766 0 70.4343C0 72.592 1.74915 74.3411 3.90684 74.3411Z" fill="#E6E7E8"/>
<defs>
<filter id="filter0_d_155_4215" x="7.82141" y="29.4929" width="83.5001" height="57.2642" filterUnits="userSpaceOnUse" color-interpolation-filters="sRGB">
<feFlood flood-opacity="0" result="BackgroundImageFix"/>
<feColorMatrix in="SourceAlpha" type="matrix" values="0 0 0 0 0 0 0 0 0 0 0 0 0 0 0 0 0 0 127 0" result="hardAlpha"/>
<feOffset dy="-3"/>
<feGaussianBlur stdDeviation="6.5"/>
<feColorMatrix type="matrix" values="0 0 0 0 0.397708 0 0 0 0 0.47749 0 0 0 0 0.575 0 0 0 0.27 0"/>
<feBlend mode="normal" in2="BackgroundImageFix" result="effect1_dropShadow_155_4215"/>
<feBlend mode="normal" in="SourceGraphic" in2="effect1_dropShadow_155_4215" result="shape"/>
</filter>
</defs>
</svg>