<svg xmlns="http://www.w3.org/2000/svg" width="168" height="182" viewBox="0 0 468 482" fill="none">
	<g clip-path="url(#clip0_3_170)">
		<path d="M238.668 285.186C255.308 286.928 260.759 301.016 251.394 317.471C252.428 318.413 253.53 319.371 254.581 320.381C261.493 327.018 263.625 337.214 259.977 346.114C256.472 354.667 248.398 360.029 238.849 360.102C234.36 360.137 229.866 359.986 225.382 360.146C221.425 360.287 219.452 358.655 219.454 354.641C219.466 333.191 219.452 311.742 219.456 290.292C219.457 286.792 221.263 285.149 224.744 285.178C229.233 285.216 233.722 285.186 238.668 285.186ZM243.253 351.224C250.571 348.2 254.173 342.865 253.594 335.908C253.046 329.327 248.469 323.467 242.084 322.491C237.583 321.803 232.893 322.358 228.136 322.358C228.136 332.348 228.136 342.021 228.136 352.233C233.233 351.974 237.85 351.74 243.253 351.224ZM248.4 303.558C247.82 294.854 240.69 291.285 228.032 294.068C228.032 300.604 228.032 307.139 228.032 313.612C241.355 315.575 246.346 313.262 248.4 303.558Z" fill="#062235"/>
		<path d="M323.115 284.66C333.295 287.728 338.516 294.359 338.638 304.541C338.784 316.69 338.795 328.844 338.637 340.992C338.478 353.183 330.264 361.047 317.961 361.127C301.351 361.235 294.254 354.182 294.237 337.532C294.227 327.212 294.22 316.892 294.24 306.573C294.27 291.788 301.954 284.14 316.753 284.183C318.739 284.189 320.725 284.416 323.115 284.66ZM302.529 328.498C302.533 332.494 302.466 336.492 302.555 340.486C302.746 349.112 307.15 353.124 316.328 353.141C325.57 353.157 330.233 349.172 330.337 340.712C330.485 328.725 330.495 316.734 330.332 304.747C330.215 296.181 325.359 292.17 315.802 292.268C307.233 292.357 302.665 296.681 302.555 305.021C302.457 312.512 302.53 320.006 302.529 328.498Z" fill="#062235"/>
		<path d="M90.9083 285.934C100.146 289.017 105.202 295.344 105.369 304.509C105.589 316.656 105.634 328.814 105.364 340.958C105.113 352.247 96.6921 360.064 85.3295 360.111C80.0033 360.133 74.6763 360.065 69.3507 360.125C65.807 360.165 64.0885 358.429 64.0853 354.979C64.0655 333.341 63.9849 311.702 64.2435 290.067C64.2629 288.44 66.7142 285.508 68.119 285.456C75.5666 285.181 83.0411 285.633 90.9083 285.934ZM79.5327 293.243C76.757 293.999 72.1209 290.879 72.1952 297.37C72.3912 314.502 72.2584 331.637 72.2921 348.77C72.2939 349.716 72.6183 350.661 72.8709 352.03C77.1473 352.03 81.2783 352.101 85.406 352.015C92.4253 351.868 97.0239 347.551 97.1395 340.478C97.3326 328.67 97.3271 316.856 97.1434 305.048C97.0365 298.173 92.3013 293.636 85.4438 293.268C83.7849 293.179 82.1176 293.247 79.5327 293.243Z" fill="#062235"/>
		<path d="M150.718 297.923C151.456 300.908 152.069 303.501 152.735 306.081C154.336 312.277 156.531 314.101 162.33 314.104C168.15 314.107 170.36 312.296 171.936 306.102C173.332 300.614 174.677 295.114 176.015 289.612C176.735 286.652 178.283 284.539 181.594 285.454C184.743 286.325 184.746 288.959 184.032 291.582C181.604 300.503 179.136 309.414 176.372 319.459C181.808 329.428 183.018 342.365 186.316 354.662C186.683 356.027 184.63 358.041 183.699 359.754C181.915 358.439 179.046 357.454 178.53 355.754C176.017 347.477 174.141 339.007 172.025 330.609C170.317 323.827 168.34 322.094 162.363 322.091C156.356 322.087 154.342 323.828 152.67 330.565C150.705 338.486 148.762 346.411 146.833 354.341C146.146 357.167 144.97 359.671 141.522 358.91C138.056 358.145 138.007 355.393 138.713 352.548C140.918 343.657 143.012 334.735 145.421 325.9C146.147 323.233 147.759 320.808 147.977 318.677C145.442 309.272 142.744 299.904 140.547 290.421C140.221 289.013 142.254 287.059 143.195 285.357C144.885 286.348 147.367 286.947 148.094 288.414C149.467 291.187 149.832 294.46 150.718 297.923Z" fill="#062235"/>
		<path d="M389.106 334C389.106 320.382 389.106 307.265 389.106 293.271C384.792 293.271 380.886 293.211 376.982 293.291C374.031 293.352 371.326 292.798 371.288 289.293C371.25 285.795 373.947 285.162 376.891 285.169C387.875 285.195 398.865 285.004 409.839 285.353C411.697 285.412 414.741 287.489 415.044 289.058C415.694 292.414 412.839 293.198 409.82 293.317C405.769 293.476 400.331 292.553 398.102 294.749C396.062 296.759 397.421 302.296 397.412 306.279C397.379 321.257 397.399 336.236 397.396 351.215C397.396 352.546 397.825 354.119 397.267 355.155C396.294 356.96 394.917 359.507 393.333 359.816C390.275 360.413 389.155 357.776 389.138 354.971C389.095 348.147 389.113 341.324 389.106 334Z" fill="#062235"/>
		<path d="M282.705 49.1277C282.705 49.1277 282.267 49.0662 282.065 48.5711C281.138 47.7626 280.413 47.4493 279.688 47.136C279.688 47.136 279.266 47.1152 279.031 46.606C277.958 45.8526 277.119 45.6083 276.28 45.364C275.691 45.2142 275.102 45.0644 274.192 44.4269C272.772 42.6101 271.673 41.281 270.575 39.952C269.459 36.1976 268.342 32.4433 267.438 28.0905C267.781 26.9342 267.912 26.3763 268.042 25.8183C282.29 29.4501 293.185 37.6513 301.013 50.7624C299.988 52.3407 299.082 53.6661 297.948 53.9052C295.062 54.5135 292.074 54.6359 289.126 54.9528C288.196 54.1027 287.265 53.2526 286.141 51.7738C284.866 50.4727 283.786 49.8002 282.705 49.1277Z" fill="#1DA4FF"/>
		<path d="M171.279 40.7899C171.279 40.7899 171.619 40.4319 172.149 40.4111C173.221 39.9035 173.763 39.4167 174.304 38.9299C175.263 38.365 176.221 37.8002 177.898 37.2489C182.158 35.9324 185.7 34.6023 189.242 33.2722C189.513 33.0659 189.819 32.9486 190.776 33.0858C192.34 32.9398 193.287 32.6281 194.234 32.3164C195.35 32.13 196.466 31.9435 197.842 32.016C198.101 32.2751 198.184 32.6741 198.133 33.0159C196.47 37.0584 194.856 40.7593 192.957 44.5871C191.497 45.5041 190.323 46.2942 189.149 47.0843C188.483 47.5535 187.817 48.0228 186.524 48.5139C185.326 49.073 184.754 49.6103 184.183 50.1476C184.183 50.1476 183.902 50.4885 183.302 50.5353C177.613 53.1658 166.433 51.2115 163 47.1377C164.829 45.603 166.658 44.0683 169.095 42.4466C170.229 41.8364 170.754 41.3131 171.279 40.7899Z" fill="#E9F2F8"/>
		<path d="M302.004 101.329C300.242 104.213 298.481 107.096 296.018 110.153C288.6 109.331 281.885 108.338 275.169 107.344C276.095 102.921 277.021 98.4976 278.364 94.0331C278.849 97.1074 280.514 98.627 283.545 98.9877C289.703 99.7208 295.851 100.543 302.004 101.329Z" fill="#1677B9"/>
		<path d="M291.216 116.373C285.765 121.315 280.314 126.256 274.516 130.919C271.508 129.209 268.848 127.776 266.188 126.343C267.958 122.799 269.728 119.255 272.209 115.518C279.018 115.675 285.117 116.024 291.216 116.373Z" fill="#0F4F7A"/>
		<path d="M287.062 72.3283C287.231 73.5789 287.4 74.8295 287.47 76.7961C287.656 78.1277 287.941 78.7434 288.226 79.359C288.374 79.7638 288.521 80.1686 288.274 80.9596C284.954 81.3278 282.028 81.3098 279.103 81.2918C277.975 74.4336 276.847 67.5754 275.839 59.8491C276.042 58.654 276.126 58.327 276.209 58C282.496 59.0423 285.284 63.3765 286.511 69.7571C286.619 71.0711 286.841 71.6997 287.062 72.3283Z" fill="#1CA1FC"/>
		<path d="M240.977 51.0088C242.493 53.3376 244.008 55.6665 245.251 58.5075C242.909 61.1448 240.879 63.3104 238.759 65.3859C235.4 68.6763 231.982 71.9064 228.588 75.162C227.45 74.3606 226.311 73.5591 225.111 72.1255C230.358 64.6652 235.668 57.837 240.977 51.0088Z" fill="#ADCEEE"/>
		<path d="M228.735 75.4703C231.982 71.9064 235.4 68.6763 238.759 65.3859C240.879 63.3104 242.909 61.1448 245.333 58.8674C246.556 60.361 247.426 62.007 248.191 64.3674C247.182 66.4309 246.313 67.8048 245.368 69.1244C242.231 73.5054 239.067 77.867 235.913 82.236C233.57 80.0835 231.226 77.9311 228.735 75.4703Z" fill="#9DC5EA"/>
		<path d="M302.162 101.217C295.851 100.543 289.703 99.7208 283.545 98.9877C280.514 98.627 278.849 97.1074 278.558 93.7058C278.32 92.9482 278.306 92.4765 278.817 91.6765C280.303 91.518 281.256 91.7694 282.224 91.8445C288.605 92.3395 294.989 92.7966 301.725 93.2829C302.597 94.3693 303.524 95.4369 303.53 96.509C303.537 97.9132 302.815 99.3209 302.407 100.727C302.407 100.727 302.32 101.105 302.162 101.217Z" fill="#1987D2"/>
		<path d="M190.785 157.852C184.419 157.245 178.254 156.302 172.064 155.564C170.345 155.36 168.554 155.766 166.409 155.95C167.795 153.101 169.568 150.194 171.961 147.312C176.322 148.227 180.137 148.887 183.778 150.078C186.499 150.969 188.995 152.545 191.592 153.816C191.386 155.075 191.181 156.334 190.785 157.852Z" fill="#9DC5EA"/>
		<path d="M301.372 93.266C294.989 92.7966 288.605 92.3395 282.224 91.8445C281.256 91.7694 280.303 91.518 278.948 91.3443C278.63 88.2794 278.707 85.2184 278.943 81.7245C282.028 81.3098 284.954 81.3278 288.277 81.2834C290.336 83.8706 291.996 86.5203 294.06 89.7132C295.504 90.5269 296.547 90.7973 297.589 91.0677C298.514 91.2966 299.439 91.5255 300.71 92.1097C301.17 92.7289 301.274 92.996 301.372 93.266Z" fill="#1D9AEF"/>
		<path d="M291.506 116.219C285.117 116.024 279.018 115.675 272.474 115.317C272.909 112.82 273.789 110.332 274.919 107.594C281.885 108.338 288.6 109.331 295.733 110.332C294.699 112.247 293.247 114.155 291.506 116.219Z" fill="#1268A3"/>
		<path d="M289.192 55.2972C292.074 54.6359 295.062 54.5135 297.948 53.9052C299.082 53.6661 299.988 52.3407 301.068 51.0943C302.938 54.295 304.737 57.9116 306.223 62.2348C302.284 63.9556 298.658 64.9698 295.031 65.984C293.107 62.5365 291.182 59.089 289.192 55.2972Z" fill="#1D96E9"/>
		<path d="M294.999 66.3672C298.658 64.9698 302.284 63.9556 306.224 62.6045C307.338 66.223 308.138 70.1785 308.461 74.5743C304.111 75.3248 300.239 75.6349 296.368 75.9451C296.282 75.1905 296.196 74.436 296.38 73.0822C296.315 71.2989 295.98 70.1148 295.645 68.9308C295.419 68.204 295.193 67.4773 294.999 66.3672Z" fill="#157EC5"/>
		<path d="M185.978 85.0233C187.34 89.2507 188.525 93.546 190.118 97.6846C191.461 101.176 191.226 103.76 187.213 105.517C186.873 105.909 186.722 106.011 186.297 106.096C184.324 101.334 182.55 96.6147 180.956 91.8355C180.138 89.383 179.639 86.824 178.991 83.9388C181.082 83.6168 183.178 83.669 185.62 84.1203C185.97 84.6873 185.974 84.8553 185.978 85.0233Z" fill="#A4CAEE"/>
		<path d="M235.989 82.5361C239.067 77.867 242.231 73.5054 245.368 69.1244C246.313 67.8048 247.182 66.4309 248.191 64.6905C249.42 66.8811 250.543 69.463 251.355 72.5594C249.676 74.2633 248.175 75.3309 246.971 76.6666C244.222 79.7147 241.619 82.894 238.957 86.02C237.992 84.9588 237.028 83.8976 235.989 82.5361Z" fill="#90BDE6"/>
		<path d="M197.494 138.858C194.09 138.385 190.895 137.858 187.811 136.955C186.451 136.557 185.315 135.394 184.007 134.196C185.948 132.011 187.96 130.207 190.525 128.648C194.149 130.422 197.222 131.951 200.294 133.48C199.446 135.204 198.598 136.928 197.494 138.858Z" fill="#6EAAE2"/>
		<path d="M296.268 76.3089C300.239 75.6349 304.111 75.3248 308.384 74.989C309.617 79.3514 307.718 82.1703 303.456 82.8001C299.078 83.4469 296.705 80.9723 296.268 76.3089Z" fill="#1268A3"/>
		<path d="M325.676 130.784C325.676 130.784 325.513 130.372 325.844 129.952C326.09 128.747 326.004 127.962 325.919 127.177C325.919 127.177 325.728 126.799 326.055 126.344C326.181 125.039 325.979 124.188 325.777 123.338C325.617 122.752 325.456 122.166 325.561 121.059C326.44 118.928 327.054 117.317 327.668 115.706C330.381 112.881 333.095 110.056 336.434 107.122C337.609 106.849 338.159 106.687 338.709 106.525C342.584 120.709 340.83 134.233 333.292 147.512C331.414 147.4 329.814 147.267 329.046 146.398C327.092 144.189 325.511 141.651 323.78 139.244C324.06 138.015 324.34 136.786 325.071 135.078C325.573 133.327 325.625 132.056 325.676 130.784Z" fill="#1DA4FF"/>
		<path d="M323.513 139.471C325.511 141.651 327.092 144.189 329.046 146.398C329.814 147.267 331.414 147.4 333.031 147.724C331.17 150.93 328.913 154.28 325.887 157.707C322.446 155.131 319.774 152.478 317.102 149.825C319.15 146.449 321.198 143.073 323.513 139.471Z" fill="#1D96E9"/>
		<path d="M316.753 149.986C319.774 152.478 322.446 155.131 325.566 157.89C322.969 160.645 319.924 163.294 316.261 165.744C313.461 162.332 311.28 159.118 309.099 155.904C309.713 155.457 310.327 155.01 311.595 154.502C313.113 153.565 313.978 152.689 314.842 151.813C315.363 151.258 315.883 150.703 316.753 149.986Z" fill="#157EC5"/>
		<path d="M308.733 155.998C311.28 159.118 313.461 162.332 315.862 165.882C312.677 169.108 309.288 168.848 306.636 165.453C303.913 161.965 304.893 158.679 308.733 155.998Z" fill="#1268A3"/>
		<path d="M265.907 126.521C268.848 127.776 271.508 129.209 274.189 131.017C272.864 132.4 271.519 133.407 269.467 134.436C266.748 133.372 264.734 132.286 262.721 131.2C263.689 129.699 264.658 128.199 265.907 126.521Z" fill="#0C4871"/>
		<path d="M262.435 131.353C264.734 132.286 266.748 133.372 269.162 134.531C264.886 137.131 260.209 139.657 255.532 142.183C255.355 141.943 255.177 141.704 255 141.465C257.383 138.145 259.766 134.825 262.435 131.353Z" fill="#062235"/>
		<path d="M163.755 174.315C160.679 177.211 159.23 180.784 160.169 185.64C160.363 187.545 160.48 189.022 160.396 190.734C156.997 182.421 158.01 177.145 163.755 174.315Z" fill="#94ADC5"/>
		<path d="M126.16 129.441C126.505 133.468 126.649 137.839 126.58 142.546C126.231 138.517 126.095 134.152 126.16 129.441Z" fill="#CFDCE7"/>
		<path d="M301.686 92.7633C301.235 92.4765 301.13 92.2094 301 91.7309C302.71 91.3776 304.438 91.2389 307.413 91C305.619 94.5615 304.286 97.2092 302.66 100.032C302.776 98.8014 303.497 97.3937 303.49 95.9895C303.485 94.9174 302.557 93.8498 301.686 92.7633Z" fill="#1987D2"/>
		<path d="M290.743 173.157C287.366 173.051 283.989 172.944 280.114 172.313C277.163 165.458 274.709 159.129 272.255 152.799C276.558 151.419 280.861 150.038 285.406 149C282.972 150.94 282.474 153.139 283.658 155.952C286.064 161.669 288.386 167.42 290.743 173.157Z" fill="#1677B9"/>
		<path d="M272.334 171.212C265.344 168.914 258.355 166.617 251.436 163.88C251.436 160.42 251.368 157.399 251.299 154.378C255.255 154.166 259.211 153.953 263.685 154.264C266.914 160.262 269.624 165.737 272.334 171.212Z" fill="#0F4F7A"/>
		<path d="M308.574 145.838C307.57 146.602 306.566 147.367 304.891 148.399C303.825 149.219 303.431 149.771 303.037 150.324C302.757 150.652 302.478 150.98 301.668 151.156C299.708 148.451 298.278 145.899 296.848 143.347C302.253 138.977 307.658 134.608 313.878 129.914C315.017 129.5 315.343 129.411 315.668 129.322C317.869 135.303 315.478 139.869 310.537 144.088C309.448 144.831 309.011 145.335 308.574 145.838Z" fill="#1CA1FC"/>
		<path d="M290.919 173.239C288.386 167.42 286.064 161.669 283.658 155.952C282.474 153.139 282.973 150.94 285.786 149.006C286.327 148.425 286.73 148.18 287.679 148.229C288.55 149.442 288.803 150.396 289.216 151.274C291.938 157.066 294.695 162.842 297.601 168.94C297.087 170.234 296.617 171.568 295.688 172.102C294.47 172.802 292.89 172.87 291.466 173.21C291.466 173.21 291.094 173.322 290.919 173.239Z" fill="#1987D2"/>
		<path d="M297.441 168.624C294.695 162.842 291.938 157.066 289.216 151.274C288.803 150.396 288.55 149.442 288.032 148.179C290.54 146.388 293.239 144.942 296.393 143.421C298.278 145.899 299.708 148.451 301.388 151.318C300.156 154.386 298.673 157.14 296.917 160.511C296.923 162.169 297.203 163.209 297.483 164.249C297.741 165.166 297.999 166.083 298.12 167.477C297.808 168.183 297.628 168.406 297.441 168.624Z" fill="#1D9AEF"/>
		<path d="M272.611 171.387C269.624 165.737 266.914 160.262 263.992 154.395C266.377 153.54 268.975 153.076 271.914 152.705C274.709 159.129 277.163 165.458 279.818 172.154C277.642 172.201 275.265 171.882 272.611 171.387Z" fill="#1268A3"/>
		<path d="M251.006 154.222C251.368 157.399 251.437 160.42 251.189 163.644C249.333 163.175 247.792 162.504 245.883 161.228C245.465 158.338 245.414 156.051 245.364 153.764C247.147 153.865 248.93 153.965 251.006 154.222Z" fill="#0C4871"/>
		<path d="M245.089 153.59C245.414 156.051 245.465 158.338 245.65 161.01C241.277 158.577 236.77 155.759 232.263 152.941C232.383 152.668 232.504 152.396 232.624 152.123C236.688 152.555 240.751 152.986 245.089 153.59Z" fill="#062235"/>
		<path d="M297.601 168.94C297.628 168.406 297.808 168.183 298.16 167.833C299.312 169.145 300.286 170.579 301.964 173.047C297.981 173.248 295.021 173.397 291.763 173.378C292.89 172.87 294.47 172.802 295.688 172.102C296.617 171.568 297.087 170.234 297.601 168.94Z" fill="#1987D2"/>
		<path d="M140.274 125.1C140.274 125.1 140.433 125.513 140.099 125.931C139.844 127.134 139.924 127.919 140.003 128.705C140.003 128.705 140.19 129.084 139.86 129.537C139.724 130.842 139.92 131.693 140.115 132.545C140.27 133.132 140.426 133.72 140.313 134.825C139.417 136.95 138.791 138.556 138.165 140.163C135.429 142.966 132.694 145.769 129.332 148.678C128.154 148.941 127.604 149.099 127.053 149.257C123.288 135.044 125.147 121.534 132.788 108.313C134.665 108.44 136.264 108.586 137.025 109.46C138.962 111.685 140.524 114.235 142.235 116.655C141.946 117.882 141.656 119.109 140.912 120.811C140.396 122.558 140.335 123.829 140.274 125.1Z" fill="#1DA4FF"/>
		<path d="M142.504 116.431C140.524 114.235 138.962 111.685 137.025 109.46C136.264 108.586 134.665 108.44 133.051 108.103C134.936 104.912 137.219 101.58 140.272 98.1766C143.693 100.78 146.344 103.453 148.996 106.127C146.922 109.486 144.847 112.846 142.504 116.431Z" fill="#1D96E9"/>
		<path d="M149.346 105.968C146.344 103.453 143.693 100.78 140.595 97.9961C143.213 95.2612 146.278 92.6362 149.961 90.2143C152.734 93.6482 154.89 96.879 157.046 100.11C156.428 100.552 155.811 100.994 154.539 101.493C153.013 102.418 152.142 103.287 151.271 104.156C150.746 104.707 150.221 105.258 149.346 105.968Z" fill="#157EC5"/>
		<path d="M157.412 100.019C154.89 96.879 152.734 93.6482 150.36 90.0795C153.57 86.8787 156.957 87.1645 159.582 90.5809C162.279 94.0893 161.273 97.3674 157.412 100.019Z" fill="#1268A3"/>
		<path d="M175.535 83.0001C178.912 83.1329 182.288 83.2657 186.157 83.9274C189.055 90.8046 191.46 97.153 193.864 103.501C189.551 104.848 185.237 106.196 180.684 107.198C183.133 105.277 183.648 103.082 182.486 100.26C180.125 94.5247 177.847 88.7553 175.535 83.0001Z" fill="#1677B9"/>
		<path d="M193.929 85.0888C200.9 87.4404 207.872 89.7921 214.769 92.5828C214.742 96.0429 214.787 99.0641 214.832 102.085C210.875 102.267 206.917 102.449 202.445 102.103C199.263 96.0804 196.596 90.5846 193.929 85.0888Z" fill="#0F4F7A"/>
		<path d="M157.492 110.18C158.502 109.423 159.512 108.666 161.195 107.647C162.268 106.836 162.666 106.287 163.065 105.737C163.346 105.412 163.628 105.086 164.439 104.916C166.379 107.636 167.788 110.199 169.198 112.762C163.759 117.09 158.32 121.417 152.065 126.062C150.922 126.467 150.596 126.553 150.27 126.64C148.116 120.642 150.542 116.095 155.516 111.914C156.61 111.18 157.051 110.68 157.492 110.18Z" fill="#1CA1FC"/>
		<path d="M175.36 82.9165C177.847 88.7553 180.125 94.5247 182.486 100.26C183.648 103.082 183.133 105.277 180.304 107.189C179.759 107.766 179.353 108.008 178.406 107.951C177.543 106.731 177.298 105.776 176.892 104.894C174.215 99.0811 171.503 93.2839 168.645 87.1643C169.169 85.874 169.649 84.5437 170.583 84.0166C171.805 83.3263 173.386 83.2703 174.813 82.9414C174.813 82.9414 175.185 82.8329 175.36 82.9165Z" fill="#1987D2"/>
		<path d="M168.802 87.4815C171.503 93.2839 174.215 99.0811 176.892 104.894C177.298 105.776 177.543 106.731 178.052 107.999C175.531 109.77 172.82 111.195 169.654 112.691C167.789 110.199 166.379 107.636 164.72 104.756C165.976 101.697 167.481 98.9554 169.263 95.5978C169.27 93.9398 168.998 92.8978 168.726 91.8559C168.475 90.9366 168.224 90.0174 168.115 88.6223C168.432 87.9195 168.614 87.6979 168.802 87.4815Z" fill="#1D9AEF"/>
		<path d="M193.653 84.911C196.596 90.5846 199.263 96.0804 202.14 101.969C199.748 102.806 197.147 103.25 194.205 103.598C191.46 97.153 189.055 90.8046 186.452 84.0884C188.628 84.0581 191.003 84.3957 193.653 84.911Z" fill="#1268A3"/>
		<path d="M215.124 102.244C214.787 99.0641 214.742 96.0429 215.014 92.8208C216.867 93.3037 218.402 93.9876 220.301 95.2775C220.697 98.1711 220.73 100.459 220.762 102.746C218.98 102.631 217.198 102.517 215.124 102.244Z" fill="#0C4871"/>
		<path d="M221.035 102.921C220.73 100.459 220.697 98.1711 220.533 95.4977C224.886 97.9648 229.371 100.818 233.856 103.671C233.734 103.942 233.611 104.214 233.489 104.486C229.428 104.023 225.368 103.56 221.035 102.921Z" fill="#062235"/>
		<path d="M168.645 87.1643C168.614 87.6979 168.432 87.9195 168.077 88.2664C166.936 86.9453 165.972 85.5043 164.314 83.0228C168.298 82.8533 171.26 82.7273 174.517 82.7714C173.386 83.2703 171.805 83.3263 170.583 84.0166C169.649 84.5437 169.169 85.8741 168.645 87.1643Z" fill="#1987D2"/>
		<path d="M190.85 46.7662C190.85 46.7662 190.569 47.1086 190.041 47.0231C188.868 47.3935 188.223 47.8494 187.578 48.3052C187.578 48.3052 187.341 48.6551 186.784 48.5903C185.582 49.1146 184.936 49.7036 184.291 50.2927C183.857 50.7174 183.422 51.1422 182.404 51.5877C180.113 51.8542 178.407 52.0998 176.7 52.3455C172.914 51.3443 169.127 50.3431 164.94 48.8486C164.131 47.9535 163.723 47.5518 163.314 47.15C173.833 36.8765 186.507 31.8436 201.777 31.9865C202.591 33.6832 203.251 35.1464 202.864 36.2395C201.881 39.0202 200.43 41.6353 199.166 44.3166C197.956 44.6686 196.745 45.0206 194.897 45.2107C193.123 45.6214 191.986 46.1938 190.85 46.7662Z" fill="#1DA4FF"/>
		<path d="M199.494 44.44C200.43 41.6353 201.881 39.0202 202.864 36.2395C203.251 35.1464 202.591 33.6832 202.089 32.1122C205.795 32.1824 209.819 32.529 214.284 33.511C213.703 37.7703 212.681 41.3942 211.659 45.0181C207.713 44.8666 203.768 44.715 199.494 44.44Z" fill="#1D96E9"/>
		<path d="M211.969 45.245C212.681 41.3941 213.703 37.7702 214.6 33.703C218.27 34.6356 222.063 36.0116 225.984 38.0248C224.361 42.1292 222.61 45.5963 220.859 49.0633C220.17 48.7437 219.481 48.4241 218.421 47.5622C216.865 46.6894 215.679 46.359 214.494 46.0285C213.756 45.843 213.018 45.6575 211.969 45.245Z" fill="#157EC5"/>
		<path d="M221.118 49.3375C222.61 45.5963 224.361 42.1293 226.298 38.3064C230.665 39.525 232.083 42.6135 230.402 46.5805C228.675 50.6544 225.327 51.3925 221.118 49.3375Z" fill="#1268A3"/>
		<path d="M244.854 56.7347C246.4 59.7389 247.947 62.7431 249.275 66.4369C244.716 72.3447 240.373 77.563 236.031 82.7813C232.735 79.6898 229.44 76.5983 226.325 73.1286C229.203 74.3141 231.367 73.682 233.252 71.2815C237.082 66.4031 240.982 61.5803 244.854 56.7347Z" fill="#1677B9"/>
		<path d="M252.09 73.7736C253.475 80.9993 254.86 88.225 255.826 95.6031C252.801 97.2821 250.193 98.8088 247.586 100.336C245.48 96.9803 243.373 93.6249 241.473 89.5622C245.149 83.8278 248.62 78.8007 252.09 73.7736Z" fill="#0F4F7A"/>
		<path d="M212.313 54.4095C213.469 54.9158 214.625 55.4221 216.341 56.3857C217.575 56.9197 218.249 56.9962 218.923 57.0727C219.345 57.1574 219.768 57.2421 220.315 57.8648C218.902 60.8919 217.365 63.3809 215.828 65.87C209.384 63.2659 202.94 60.6618 195.817 57.5036C194.902 56.7081 194.666 56.4666 194.43 56.2251C198.591 51.3979 203.743 51.2715 209.831 53.5425C211.009 54.1337 211.661 54.2716 212.313 54.4095Z" fill="#1CA1FC"/>
		<path d="M244.84 56.5412C240.982 61.5803 237.082 66.4031 233.252 71.2815C231.367 73.682 229.203 74.3141 226.146 72.7933C225.376 72.6024 224.966 72.3686 224.548 71.5158C225.186 70.1649 225.897 69.481 226.464 68.6937C230.206 63.5016 233.917 58.2873 237.837 52.7867C239.218 52.6078 240.612 52.3708 241.531 52.924C242.734 53.6485 243.561 54.997 244.549 56.0771C244.549 56.0771 244.827 56.3478 244.84 56.5412Z" fill="#1987D2"/>
		<path d="M237.638 53.0802C233.917 58.2873 230.206 63.5016 226.464 68.6937C225.897 69.481 225.186 70.165 224.333 71.2315C221.55 69.9086 218.975 68.251 216.114 66.2317C217.365 63.3809 218.902 60.8919 220.593 58.0305C223.873 57.6182 227 57.578 230.801 57.4769C232.247 56.6664 233.02 55.9168 233.793 55.1672C234.47 54.4964 235.147 53.8255 236.307 53.0433C237.075 52.9733 237.357 53.0227 237.638 53.0802Z" fill="#1D9AEF"/>
		<path d="M252.109 73.4457C248.62 78.8007 245.149 83.8278 241.439 89.2304C239.533 87.5603 237.866 85.5146 236.115 83.1251C240.373 77.563 244.716 72.3447 249.28 66.7729C250.378 68.6522 251.253 70.8851 252.109 73.4457Z" fill="#1268A3"/>
		<path d="M247.592 100.667C250.193 98.8088 252.801 97.2821 255.739 95.9329C256.231 97.7836 256.392 99.4567 256.204 101.744C253.88 103.514 251.905 104.668 249.93 105.823C249.152 104.215 248.375 102.607 247.592 100.667Z" fill="#0C4871"/>
		<path d="M249.912 106.147C251.905 104.668 253.88 103.514 256.126 102.054C256.122 107.058 255.846 112.367 255.571 117.675C255.274 117.702 254.977 117.729 254.681 117.756C253.085 113.994 251.489 110.233 249.912 106.147Z" fill="#062235"/>
		<path d="M237.837 52.7868C237.357 53.0227 237.075 52.9733 236.598 52.8355C237.186 51.1913 237.966 49.6436 239.31 46.9784C241.419 50.3628 242.986 52.8788 244.552 55.736C243.56 54.9971 242.734 53.6486 241.531 52.9241C240.612 52.3709 239.218 52.6078 237.837 52.7868Z" fill="#1987D2"/>
		<path d="M184.144 207.135C184.144 207.135 184.594 207.202 184.788 207.704C185.721 208.531 186.458 208.854 187.196 209.178C187.196 209.178 187.63 209.203 187.858 209.72C188.943 210.492 189.8 210.747 190.656 211.001C191.258 211.158 191.86 211.315 192.78 211.968C194.194 213.82 195.289 215.174 196.384 216.529C197.435 220.338 198.487 224.146 199.304 228.558C198.921 229.725 198.772 230.289 198.624 230.852C184.062 227.049 173.066 218.652 165.354 205.316C166.449 203.728 167.415 202.396 168.588 202.164C171.573 201.575 174.65 201.478 177.69 201.184C178.625 202.052 179.56 202.921 180.679 204.427C181.956 205.755 183.05 206.445 184.144 207.135Z" fill="#1DA4FF"/>
		<path d="M177.631 200.835C174.65 201.478 171.573 201.575 168.588 202.164C167.415 202.396 166.449 203.728 165.306 204.98C163.466 201.725 161.709 198.049 160.292 193.661C164.389 191.956 168.145 190.962 171.902 189.969C173.792 193.475 175.683 196.98 177.631 200.835Z" fill="#1D96E9"/>
		<path d="M171.944 189.582C168.145 190.963 164.389 191.956 160.301 193.287C159.249 189.616 158.528 185.607 158.31 181.156C162.804 180.436 166.795 180.157 170.785 179.879C170.854 180.643 170.923 181.407 170.698 182.775C170.719 184.58 171.033 185.781 171.347 186.982C171.56 187.719 171.774 188.457 171.944 189.582Z" fill="#157EC5"/>
		<path d="M170.897 179.511C166.795 180.157 162.804 180.436 158.4 180.737C157.245 176.312 159.271 173.477 163.672 172.879C168.191 172.264 170.568 174.789 170.897 179.511Z" fill="#1268A3"/>
		<path d="M165.307 155.056C167.192 152.153 169.077 149.251 171.688 146.18C179.298 147.073 186.18 148.136 193.063 149.199C191.999 153.666 190.934 158.134 189.439 162.639C189.018 159.525 187.343 157.973 184.235 157.582C177.919 156.788 171.615 155.903 165.307 155.056Z" fill="#1677B9"/>
		<path d="M176.786 139.926C182.518 134.973 188.251 130.02 194.334 125.351C197.384 127.107 200.085 128.579 202.785 130.052C200.874 133.623 198.963 137.194 196.316 140.953C189.315 140.737 183.05 140.332 176.786 139.926Z" fill="#0F4F7A"/>
		<path d="M179.94 184.526C179.798 183.259 179.656 181.993 179.635 180.002C179.477 178.653 179.199 178.028 178.921 177.403C178.78 176.992 178.639 176.581 178.913 175.783C182.338 175.438 185.347 175.482 188.355 175.525C189.342 182.473 190.328 189.422 191.169 197.248C190.929 198.455 190.835 198.786 190.741 199.116C184.3 198.008 181.542 193.599 180.442 187.132C180.364 185.802 180.152 185.164 179.94 184.526Z" fill="#1CA1FC"/>
		<path d="M165.141 155.168C171.615 155.903 177.919 156.788 184.235 157.582C187.343 157.973 189.018 159.525 189.232 162.969C189.457 163.737 189.459 164.215 188.913 165.02C187.381 165.168 186.406 164.905 185.413 164.821C178.861 164.266 172.306 163.749 165.389 163.2C164.52 162.093 163.593 161.005 163.615 159.92C163.643 158.499 164.421 157.081 164.877 155.662C164.877 155.662 164.975 155.28 165.141 155.168Z" fill="#1987D2"/>
		<path d="M165.752 163.22C172.306 163.749 178.861 164.266 185.413 164.821C186.406 164.905 187.381 165.168 188.77 165.355C189.019 168.459 188.863 171.555 188.531 175.088C185.347 175.482 182.338 175.438 178.918 175.455C176.866 172.82 175.225 170.125 173.184 166.877C171.718 166.041 170.653 165.759 169.588 165.476C168.642 165.237 167.696 164.997 166.403 164.395C165.946 163.765 165.845 163.494 165.752 163.22Z" fill="#1D9AEF"/>
		<path d="M176.484 140.08C183.05 140.332 189.315 140.737 196.038 141.155C195.527 143.677 194.559 146.187 193.327 148.948C186.18 148.136 179.298 147.073 171.985 146.001C173.098 144.072 174.64 142.153 176.484 140.08Z" fill="#1268A3"/>
		<path d="M203.078 129.875C200.085 128.579 197.384 127.107 194.672 125.255C196.07 123.867 197.48 122.859 199.616 121.835C202.387 122.935 204.431 124.051 206.474 125.167C205.44 126.677 204.405 128.187 203.078 129.875Z" fill="#0C4871"/>
		<path d="M206.773 125.015C204.431 124.051 202.387 122.935 199.933 121.742C204.397 119.148 209.273 116.632 214.148 114.116C214.324 114.36 214.501 114.603 214.677 114.847C212.142 118.186 209.606 121.524 206.773 125.015Z" fill="#062235"/>
		<path d="M165.389 163.2C165.845 163.494 165.946 163.765 166.068 164.25C164.3 164.593 162.519 164.719 159.453 164.935C161.388 161.347 162.827 158.679 164.571 155.837C164.421 157.081 163.643 158.499 163.615 159.92C163.593 161.005 164.52 162.093 165.389 163.2Z" fill="#1987D2"/>
		<path d="M278.305 211.131C278.305 211.131 278.579 210.784 279.109 210.859C280.274 210.467 280.91 209.999 281.547 209.531C281.547 209.531 281.778 209.176 282.336 209.231C283.528 208.684 284.162 208.083 284.796 207.481C285.222 207.048 285.648 206.616 286.658 206.151C288.943 205.841 290.645 205.563 292.346 205.285C296.151 206.215 299.956 207.144 304.171 208.559C304.996 209.438 305.412 209.832 305.828 210.226C295.506 220.697 282.929 225.969 267.66 226.115C266.814 224.434 266.126 222.984 266.492 221.883C267.422 219.085 268.824 216.443 270.037 213.738C271.24 213.363 272.443 212.988 274.287 212.763C276.054 212.319 277.179 211.725 278.305 211.131Z" fill="#1DA4FF"/>
		<path d="M269.706 213.621C268.824 216.443 267.422 219.085 266.492 221.883C266.126 222.984 266.814 224.434 267.345 225.995C263.639 225.995 259.608 225.725 255.126 224.828C255.627 220.558 256.58 216.916 257.533 213.273C261.481 213.35 265.428 213.427 269.706 213.621Z" fill="#1D96E9"/>
		<path d="M257.218 213.052C256.58 216.916 255.627 220.558 254.806 224.642C251.12 223.779 247.3 222.475 243.342 220.536C244.888 216.402 246.573 212.902 248.258 209.403C248.953 209.709 249.647 210.016 250.724 210.857C252.296 211.7 253.488 212.008 254.679 212.316C255.42 212.488 256.162 212.659 257.218 213.052Z" fill="#157EC5"/>
		<path d="M247.994 209.133C246.573 212.902 244.888 216.402 243.023 220.261C238.634 219.125 237.157 216.064 238.763 212.066C240.413 207.96 243.747 207.158 247.994 209.133Z" fill="#1268A3"/>
		<path d="M224.122 202.187C222.519 199.212 220.916 196.238 219.518 192.57C223.965 186.577 228.207 181.277 232.45 175.978C235.804 179.006 239.158 182.035 242.337 185.445C239.437 184.314 237.285 184.987 235.446 187.423C231.71 192.373 227.901 197.269 224.122 202.187Z" fill="#1677B9"/>
		<path d="M216.564 185.288C215.043 178.09 213.522 170.891 212.416 163.533C215.409 161.797 217.987 160.221 220.565 158.645C222.735 161.96 224.904 165.275 226.881 169.301C223.314 175.104 219.939 180.196 216.564 185.288Z" fill="#0F4F7A"/>
		<path d="M256.701 203.896C255.536 203.411 254.37 202.927 252.637 201.996C251.393 201.485 250.717 201.422 250.042 201.358C249.618 201.281 249.194 201.205 248.635 200.592C249.99 197.539 251.48 195.021 252.97 192.504C259.462 194.985 265.954 197.467 273.136 200.49C274.065 201.268 274.306 201.505 274.546 201.742C270.478 206.647 265.329 206.871 259.199 204.715C258.01 204.147 257.355 204.021 256.701 203.896Z" fill="#1CA1FC"/>
		<path d="M224.139 202.38C227.901 197.269 231.71 192.373 235.446 187.423C237.285 184.987 239.437 184.314 242.522 185.777C243.296 185.953 243.711 186.179 244.144 187.024C243.532 188.387 242.834 189.084 242.282 189.882C238.639 195.144 235.027 200.427 231.212 206.001C229.835 206.206 228.445 206.469 227.516 205.934C226.3 205.232 225.448 203.9 224.439 202.838C224.439 202.838 224.156 202.573 224.139 202.38Z" fill="#1987D2"/>
		<path d="M231.405 205.704C235.027 200.427 238.639 195.144 242.282 189.882C242.834 189.084 243.532 188.387 244.365 187.304C247.172 188.574 249.778 190.183 252.676 192.147C251.48 195.021 249.99 197.539 248.354 200.432C245.082 200.906 241.956 201.006 238.159 201.179C236.728 202.016 235.969 202.78 235.21 203.545C234.546 204.228 233.882 204.912 232.737 205.716C231.971 205.8 231.687 205.756 231.405 205.704Z" fill="#1D9AEF"/>
		<path d="M216.552 185.616C219.939 180.196 223.314 175.104 226.921 169.632C228.859 171.266 230.564 173.28 232.36 175.636C228.207 181.277 223.965 186.577 219.506 192.234C218.373 190.376 217.456 188.16 216.552 185.616Z" fill="#1268A3"/>
		<path d="M220.553 158.314C217.987 160.221 215.409 161.797 212.496 163.201C211.97 161.36 211.777 159.691 211.922 157.4C214.212 155.587 216.165 154.395 218.117 153.204C218.925 154.796 219.733 156.389 220.553 158.314Z" fill="#0C4871"/>
		<path d="M218.13 152.879C216.165 154.395 214.212 155.587 211.994 157.088C211.904 152.085 212.079 146.772 212.253 141.46C212.55 141.427 212.846 141.395 213.142 141.362C214.809 145.093 216.475 148.824 218.13 152.879Z" fill="#062235"/>
		<path d="M231.212 206.001C231.687 205.756 231.971 205.8 232.45 205.929C231.893 207.584 231.142 209.146 229.849 211.836C227.677 208.492 226.062 206.006 224.443 203.179C225.448 203.9 226.3 205.232 227.516 205.934C228.445 206.469 229.835 206.206 231.212 206.001Z" fill="#1987D2"/>
		<path d="M267.889 25.6284C267.912 26.3763 267.781 26.9342 267.455 27.7044C267.418 27.0907 267.577 26.2646 267.889 25.6284Z" fill="#D4E0EC"/>
	</g>
	<defs>
		<clipPath id="clip0_3_170">
			<rect width="468" height="482" fill="white"/>
		</clipPath>
	</defs>
</svg>