<svg
                                xmlns="http://www.w3.org/2000/svg"
                                width="16"
                                height="16"
                                viewBox="0 0 16 16"
                                fill="none"
                              >
                                <path
                                  d="M1.33325 7.33329C1.33325 8.06967 1.93021 8.66663 2.66659 8.66663C3.77115 8.66663 4.66659 7.7712 4.66659 6.66663V3.99996C4.66659 2.89539 3.77115 1.99996 2.66659 1.99996C1.93021 1.99996 1.33325 2.59691 1.33325 3.33329V7.33329Z"
                                  stroke="#97A0AF"
                                  stroke-width="1.2"
                                  stroke-linecap="round"
                                  stroke-linejoin="round"
                                />
                                <path
                                  d="M10.319 10.4625L10.1415 9.88915C9.99599 9.4193 9.92325 9.18438 9.97919 8.99884C10.0244 8.84874 10.1238 8.71936 10.2592 8.63423C10.4265 8.52901 10.6796 8.52901 11.1859 8.52901H11.4553C13.1686 8.52901 14.0253 8.52901 14.4299 8.02184C14.4762 7.96388 14.5173 7.90224 14.5529 7.8376C14.8642 7.27194 14.5103 6.50995 13.8025 4.98597C13.153 3.58745 12.8282 2.88819 12.2252 2.4766C12.1668 2.43676 12.1068 2.39918 12.0454 2.36395C11.4105 2.00004 10.6239 2.00004 9.05078 2.00004H8.70957C6.80365 2.00004 5.85069 2.00004 5.2586 2.57373C4.6665 3.14741 4.6665 4.07075 4.6665 5.91742V6.56648C4.6665 7.53695 4.6665 8.02219 4.83873 8.46631C5.01096 8.91044 5.34074 9.27561 6.0003 10.006L8.72791 13.0263C8.79632 13.1021 8.83053 13.14 8.86069 13.1662C9.1422 13.4112 9.57665 13.3836 9.82277 13.1051C9.84914 13.0753 9.87796 13.0334 9.93558 12.9497C10.0257 12.8187 10.0708 12.7532 10.1101 12.6883C10.4617 12.1073 10.5681 11.4171 10.407 10.7619C10.389 10.6888 10.3657 10.6133 10.319 10.4625Z"
                                  stroke="#97A0AF"
                                  stroke-width="1.2"
                                  stroke-linecap="round"
                                  stroke-linejoin="round"
                                />
                              </svg>