<svg
                                xmlns="http://www.w3.org/2000/svg"
                                width="16"
                                height="16"
                                viewBox="0 0 16 16"
                                fill="none"
                              >
                                <path
                                  d="M1.33325 7.99996C1.33325 7.26358 1.93021 6.66663 2.66659 6.66663C3.77115 6.66663 4.66659 7.56206 4.66659 8.66663V11.3333C4.66659 12.4379 3.77115 13.3333 2.66659 13.3333C1.93021 13.3333 1.33325 12.7363 1.33325 12V7.99996Z"
                                  stroke="#97A0AF"
                                  stroke-width="1.2"
                                  stroke-linecap="round"
                                  stroke-linejoin="round"
                                />
                                <path
                                  d="M10.319 4.87084L10.1415 5.44423C9.99599 5.91407 9.92325 6.149 9.97919 6.33453C10.0244 6.48463 10.1238 6.61401 10.2592 6.69914C10.4265 6.80436 10.6796 6.80436 11.1859 6.80436H11.4553C13.1686 6.80436 14.0253 6.80436 14.4299 7.31153C14.4762 7.3695 14.5173 7.43113 14.5529 7.49578C14.8642 8.06143 14.5103 8.82342 13.8025 10.3474C13.153 11.7459 12.8282 12.4452 12.2252 12.8568C12.1668 12.8966 12.1068 12.9342 12.0454 12.9694C11.4105 13.3333 10.6239 13.3333 9.05078 13.3333H8.70957C6.80365 13.3333 5.85069 13.3333 5.2586 12.7596C4.6665 12.186 4.6665 11.2626 4.6665 9.41595V8.76689C4.6665 7.79642 4.6665 7.31119 4.83873 6.86706C5.01096 6.42294 5.34074 6.05776 6.0003 5.32741L8.72791 2.30704C8.79632 2.23129 8.83053 2.19341 8.86069 2.16717C9.1422 1.92219 9.57665 1.94976 9.82277 2.22823C9.84914 2.25806 9.87796 2.29994 9.93558 2.38369C10.0257 2.5147 10.0708 2.5802 10.1101 2.6451C10.4617 3.22609 10.5681 3.91624 10.407 4.57143C10.389 4.64461 10.3657 4.72006 10.319 4.87084Z"
                                  stroke="#97A0AF"
                                  stroke-width="1.2"
                                  stroke-linecap="round"
                                  stroke-linejoin="round"
                                />
                              </svg>